HIERARCHY
ROOT Hips
{
	OFFSET 0.000000 0.000000 0.000000 
	CHANNELS 6 Xposition Yposition Zposition Yrotation Zrotation Xrotation 
	JOINT Lumbar
	{
		OFFSET 0.000000 0.000000 0.000000 
		CHANNELS 3 Zrotation Xrotation Yrotation
		JOINT Neck
		{
			OFFSET 0.000000 0.445665 0.000000 
			CHANNELS 3 Zrotation Xrotation Yrotation
			End Site
			{
				OFFSET 0.000000 0.227535 0.000000 
			}
		}
		JOINT RightShoulder
		{
			OFFSET 0.019635 0.377685 0.194865 
			CHANNELS 3 Zrotation Xrotation Yrotation
			JOINT RightElbow
			{
				OFFSET 0.000000 -0.243375 0.000000 
				CHANNELS 2 Zrotation Yrotation
				JOINT RightWrist
				{
					OFFSET 0.000000 -0.264825 0.000000 
					CHANNELS 2 Zrotation Xrotation
					End Site
					{
						OFFSET 0.006600 -0.176220 0.000990 
					}
				}
			}
		}
		JOINT LeftShoulder
		{
			OFFSET 0.019635 0.377685 -0.194865 
			CHANNELS 3 Zrotation Xrotation Yrotation
			JOINT LeftElbow
			{
				OFFSET 0.000000 -0.243375 0.000000 
				CHANNELS 2 Zrotation Yrotation
				JOINT LeftWrist
				{
					OFFSET 0.000000 -0.264825 0.000000 
					CHANNELS 2 Zrotation Xrotation
					End Site
					{
						OFFSET 0.006600 -0.176220 -0.000990 
					}
				}
			}
		}
	}
	JOINT RightHip
	{
		OFFSET 0.052140 -0.069960 0.075570 
		CHANNELS 3 Zrotation Xrotation Yrotation
		JOINT RightKnee
		{
			OFFSET 0.000000 -0.402270 0.000000 
			CHANNELS 1 Zrotation
			JOINT RightAnkle
			{
				OFFSET 0.000000 -0.404085 0.000000 
				CHANNELS 3 Zrotation Xrotation Yrotation
				End Site
				{
					OFFSET 0.204105 -0.089430 0.008415 
				}
			}
		}
	}
	JOINT LeftHip
	{
		OFFSET 0.052140 -0.069960 -0.075570 
		CHANNELS 3 Zrotation Xrotation Yrotation
		JOINT LeftKnee
		{
			OFFSET 0.000000 -0.402270 0.000000 
			CHANNELS 1 Zrotation
			JOINT LeftAnkle
			{
				OFFSET 0.000000 -0.404085 0.000000 
				CHANNELS 3 Zrotation Xrotation Yrotation
				End Site
				{
					OFFSET 0.204105 -0.089430 -0.008415 
				}
			}
		}
	}
}
MOTION
Frames: 19
Frame Time: 0.02
1.50036 0.30531 -0.40382 19.0446 -25.21893 -4.28282 23.40498 4.48902 -14.05802 -12.18469 3.43805 -0.83074 11.54129 -5.70533 29.53762 109.10231 69.19557 -12.90225 0.29783 15.54839 5.86932 -20.67088 89.7629 -87.90036 19.09716 2.5351 20.72495 -3.07115 15.8168 0.52878 -10.03865 -39.15898 -21.28172 19.61743 6.70563 -13.61009 0.53981 -14.11473 39.35006 21.32256
1.5001 0.30522 -0.40399 19.02085 -25.22308 -4.27427 23.45933 4.4793 -14.07805 -12.16009 3.3964 -0.83074 11.25059 -5.85878 29.74116 109.24973 68.34363 -12.94946 0.48177 15.46815 5.92088 -20.62604 89.79783 -87.76296 19.05414 2.53119 20.7474 -3.09094 15.43292 0.52838 -9.13379 -38.02723 -20.97486 19.62922 6.68218 -13.5875 0.53986 -14.15609 39.43277 21.33695
1.49984 0.30512 -0.40413 18.98116 -25.22094 -4.26106 23.50428 4.46946 -14.07931 -12.11542 3.36419 -0.83074 11.04643 -5.98694 30.19096 109.40824 67.53992 -12.9642 0.75124 15.39904 5.96315 -20.58916 89.80343 -87.56725 19.02354 2.52799 20.76905 -3.11322 14.92307 0.52773 -7.89632 -36.47875 -20.56706 19.63348 6.65446 -13.51789 0.53984 -14.09737 39.38852 21.32893
1.49958 0.30503 -0.40428 18.94834 -25.22184 -4.25015 23.55347 4.45947 -14.08829 -12.08026 3.32893 -0.83074 10.80266 -6.1265 30.53109 109.56365 66.74357 -12.99163 0.97278 15.32618 6.00875 -20.54989 89.82194 -87.40334 18.98438 2.52482 20.79154 -3.13421 14.49877 0.52725 -6.86926 -35.19326 -20.22557 19.64142 6.62898 -13.46779 0.53984 -14.07898 39.39526 21.33009
1.49933 0.30494 -0.40445 18.91705 -25.22232 -4.23829 23.60299 4.45027 -14.10045 -12.0431 3.28843 -0.83074 10.55967 -6.2665 30.86098 109.712 65.81128 -13.02781 1.23296 15.24741 6.05811 -20.50541 89.84278 -87.21815 18.95741 2.52015 20.81249 -3.15605 13.95667 0.52655 -5.59562 -33.60167 -19.79886 19.64871 6.60206 -13.42861 0.53986 -14.09022 39.44015 21.33763
1.49905 0.30484 -0.40458 18.87891 -25.22196 -4.22742 23.64948 4.43943 -14.10191 -12.00574 3.26091 -0.83074 10.33568 -6.3994 31.26896 109.87643 65.17962 -13.03815 1.43223 15.18369 6.09758 -20.47354 89.85163 -87.06326 18.90829 2.51878 20.83616 -3.17657 13.626 0.52623 -4.74874 -32.53905 -19.52289 19.65533 6.57724 -13.35368 0.53984 -14.01177 39.37036 21.32517
1.49873 0.30473 -0.4046 18.82435 -25.22192 -4.21997 23.69043 4.42404 -14.07471 -11.9692 3.26917 -0.83074 10.14445 -6.52036 31.85743 110.09291 65.34915 -12.98365 1.44994 15.15949 6.11019 -20.47644 89.83387 -87.00318 18.79192 2.52628 20.86913 -3.19374 13.95241 0.52707 -5.24334 -33.13829 -19.71798 19.6628 6.55856 -13.20004 0.53972 -13.72563 39.03223 21.27029
1.49838 0.30462 -0.40458 18.76367 -25.22103 -4.21378 23.72852 4.40703 -14.03802 -11.93375 3.2898 -0.83074 9.96927 -6.63466 32.51185 110.3233 65.82322 -12.90448 1.40229 15.14999 6.11346 -20.49145 89.80508 -86.97586 18.65343 2.53708 20.90456 -3.20932 14.48891 0.52829 -6.16532 -34.26773 -20.06331 19.66967 6.54225 -13.01049 0.53955 -13.34967 38.57962 21.19477
1.49804 0.30451 -0.40458 18.70671 -25.21974 -4.20737 23.76759 4.39079 -14.00813 -11.90015 3.30331 -0.83074 9.78573 -6.75118 33.11992 110.54044 66.17207 -12.83758 1.37925 15.13335 6.1222 -20.49972 89.78172 -86.93562 18.52692 2.54646 20.93774 -3.225 14.90092 0.52928 -6.8372 -35.08826 -20.31981 19.67614 6.52531 -12.83097 0.53939 -13.00275 38.16573 21.12336
1.4977 0.3044 -0.40458 18.64532 -25.22147 -4.19937 23.80776 4.37437 -13.96725 -11.85614 3.32345 -0.83074 9.60926 -6.87066 33.80526 110.78698 66.47127 -12.76522 1.37953 15.11895 6.12555 -20.51348 89.75563 -86.88568 18.39242 2.55558 20.97556 -3.24335 15.42854 0.53049 -7.7287 -36.17545 -20.65777 19.68505 6.5064 -12.67485 0.53929 -12.69891 37.79983 21.07231
1.49736 0.30428 -0.40456 18.59182 -25.21689 -4.19498 23.845 4.358 -13.94705 -11.83409 3.33263 -0.83074 9.42131 -6.98214 34.34264 110.97573 66.93997 -12.69864 1.31608 15.10333 6.13788 -20.51859 89.73293 -86.8637 18.26952 2.56595 21.00447 -3.25579 15.76998 0.53135 -8.27438 -36.84566 -20.86526 19.68899 6.49216 -12.46404 0.53906 -12.28936 37.3133 20.97567
1.49703 0.30415 -0.40449 18.56235 -25.19421 -4.20074 23.87562 4.34175 -13.98813 -11.8745 3.30819 -0.83074 9.19283 -7.07818 34.44977 110.99896 67.85151 -12.65576 1.07983 15.07998 6.17841 -20.49679 89.72274 -86.91779 18.18056 2.57963 21.00672 -3.25158 15.52053 0.53116 -7.71327 -36.17685 -20.65754 19.67817 6.49064 -12.09458 0.53846 -11.57628 36.48139 20.74615
1.49669 0.30402 -0.4044 18.54099 -25.16542 -4.21002 23.9033 4.3257 -14.05007 -11.93666 3.27238 -0.83074 8.9529 -7.16546 34.40558 110.96392 68.91404 -12.61953 0.78385 15.05503 6.22808 -20.46588 89.71639 -86.99798 18.10458 2.59433 21.00022 -3.24159 15.08204 0.53062 -6.80032 -35.08355 -20.31738 19.66264 6.4937 -11.67497 0.53774 -10.76748 35.54117 20.47405
1.49636 0.3039 -0.40432 18.51552 -25.14001 -4.2174 23.93186 4.30984 -14.10142 -11.9876 3.24187 -0.83074 8.72075 -7.25375 34.43304 110.95721 69.87451 -12.57908 0.52298 15.03118 6.27291 -20.4391 89.70813 -87.06184 18.02492 2.60814 20.99866 -3.23466 14.74714 0.53027 -6.08064 -34.22403 -20.05009 19.65006 6.49444 -11.28886 0.5371 -10.02398 34.67627 20.22911
1.49603 0.30377 -0.40424 18.49158 -25.11196 -4.22611 23.96223 4.29272 -14.15731 -12.04429 3.211 -0.83074 8.47755 -7.35488 34.45063 110.94338 70.98551 -12.54219 0.22551 15.00606 6.32046 -20.41265 89.70016 -87.1452 17.93526 2.62388 20.99306 -3.22581 14.34406 0.52981 -5.23302 -33.20806 -19.73381 19.63397 6.49626 -10.8548 0.53635 -9.18189 33.69293 19.94946
1.49568 0.30364 -0.40416 18.4665 -25.08804 -4.23286 23.98816 4.27832 -14.20859 -12.09405 3.1783 -0.83074 8.2554 -7.42657 34.45216 110.93011 71.81653 -12.50055 -0.00813 14.98328 6.36443 -20.38336 89.69264 -87.19429 17.86965 2.63579 20.99383 -3.21964 14.03637 0.52949 -4.56495 -32.41299 -19.48696 19.62418 6.49688 -10.51098 0.53581 -8.5278 32.93735 19.73352
1.49527 0.30352 -0.40407 18.43597 -25.07646 -4.23354 24.00277 4.271 -14.24415 -12.12027 3.14091 -0.83074 8.08574 -7.4253 34.44388 110.93466 71.82126 -12.43782 -0.05915 14.96499 6.39808 -20.34683 89.68556 -87.13761 17.86868 2.63686 21.01366 -3.2219 14.02802 0.52959 -4.45694 -32.30422 -19.45621 19.63208 6.49328 -10.41288 0.5358 -8.3796 32.79113 19.69299
1.49483 0.3034 -0.40397 18.40416 -25.06936 -4.23208 24.01299 4.26648 -14.27403 -12.13861 3.10247 -0.83074 7.93913 -7.39371 34.42474 110.94133 71.5405 -12.3713 -0.04231 14.94948 6.42752 -20.30796 89.67882 -87.04627 17.89135 2.63404 21.04029 -3.22712 14.12235 0.52983 -4.54233 -32.43319 -19.50013 19.64664 6.48826 -10.41003 0.536 -8.43015 32.88571 19.71986
1.4944 0.30328 -0.40387 18.37313 -25.06061 -4.23147 24.02512 4.26093 -14.30513 -12.15994 3.06604 -0.83074 7.78744 -7.37184 34.41192 110.94564 71.39954 -12.31095 -0.05043 14.93419 6.45774 -20.27119 89.67191 -86.97377 17.90238 2.63299 21.06428 -3.23123 14.17631 0.53003 -4.55311 -32.4709 -19.51503 19.65874 6.48374 -10.37461 0.53613 -8.41558 32.90257 19.72358
